<svg xmlns="http://www.w3.org/2000/svg" enable-background="new 0 0 68 68" viewBox="0 0 68 68" id="Camera"><path fill="#c7cad1" d="M12.4196,15.1317v3.9785h-5.866v-3.9785c0-0.3165,0.2599-0.5651,0.5651-0.5651h4.7358
		C12.1709,14.5665,12.4196,14.8152,12.4196,15.1317z" class="colorc7cbd1 svgShape"></path><path fill="#4d81f4" d="M54.4613,17.1997l-3.2733-6.7211c-0.5679-1.1662-1.7514-1.9061-3.0485-1.9061H24.3811
			c-1.2971,0-2.4805,0.74-3.0485,1.9061l-3.2733,6.7211c-0.5679,1.1662-1.7514,1.9061-3.0485,1.9061H5.3906
			c-1.8727,0-3.3908,1.5181-3.3908,3.3908v33.5402c0,1.8727,1.5181,3.3908,3.3908,3.3908H62.609
			c1.8727,0,3.3908-1.5181,3.3908-3.3908V22.4966c0-1.8727-1.5181-3.3908-3.3908-3.3908h-5.0993
			C56.2127,19.1058,55.0292,18.3659,54.4613,17.1997z" class="color4dabf4 svgShape"></path><path fill="#7ea6ff" d="M65.9998,35.8524V22.4966c0-1.8727-1.5181-3.3908-3.3908-3.3908h-5.0993
			c-1.2971,0-2.4805-0.74-3.0485-1.9061l-3.2732-6.7211c-0.568-1.1662-1.7514-1.9061-3.0485-1.9061H24.3811
			c-1.2971,0-2.4805,0.7399-3.0485,1.9061l-3.2732,6.7211c-0.568,1.1661-1.7514,1.9061-3.0485,1.9061H5.3906
			c-1.8727,0-3.3908,1.5181-3.3908,3.3908v13.3558H65.9998z" class="colorff7e7e svgShape"></path><path fill="#2563eb" d="M66.0045,22.497v33.54c0,1.87-1.52,3.39-3.4,3.39h-57.21c-1.88,0-3.39-1.52-3.39-3.39v-1.03
			c19.29-1.51,31.18-9.91,38.47-19.15c7.54-9.54,10.18-19.99,11.04-24.71l2.95,6.05c0.56,1.17,1.75,1.91,3.05,1.91h5.09
			C64.4845,19.107,66.0045,20.627,66.0045,22.497z" class="color1d7bd5 svgShape"></path><path fill="#3d75ef" d="M66.0045,22.497v13.36h-25.53c7.54-9.54,10.18-19.99,11.04-24.71l2.95,6.05c0.56,1.17,1.75,1.91,3.05,1.91
			h5.09C64.4845,19.107,66.0045,20.627,66.0045,22.497z" class="coloref3d3d svgShape"></path><circle cx="36.825" cy="35.852" r="16.838" fill="#ffffff" class="colorffffff svgShape"></circle><circle cx="36.825" cy="35.852" r="11" fill="#dee0e6" class="colordee1e6 svgShape"></circle><path fill="#c7cad1" d="M36.5641 24.8601c-.0605 2.7223-1.1408 5.4447-3.215 7.5189-2.0741 2.0742-4.7879 3.1458-7.5103 3.2064.0605-2.7224 1.1322-5.4362 3.2063-7.5103C31.1194 26.0009 33.8417 24.9206 36.5641 24.8601zM47.8165 36.1125c-2.7223.0605-5.4447 1.1408-7.5189 3.215-2.0741 2.0742-3.1458 4.7879-3.2064 7.5103 2.7224-.0605 5.4362-1.1322 7.5103-3.2063C46.6757 41.5572 47.756 38.8349 47.8165 36.1125z" class="colorc7cbd1 svgShape"></path><circle cx="36.825" cy="35.852" r="3.056" fill="#a3a5a8" class="colora3a6a8 svgShape"></circle><path d="M15.011 20.106c-.0001 0-.0002 0-.0002 0C15.0292 20.106 15.025 20.106 15.011 20.106zM62.6089 18.106h-5.0991c-2.4855 0-2.4593-2.7711-5.4229-8.0654-.73-1.4995-2.2798-2.4683-3.9473-2.4683H24.3809c-1.673 0-3.2196.9735-3.9473 2.4683-2.9469 5.2641-2.9337 8.0654-5.4229 8.0654h-1.5913v-2.9741c0-.8633-.7021-1.5654-1.5649-1.5654H7.1187c-.8628 0-1.5649.7021-1.5649 1.5654v2.9741H5.3906C2.9697 18.106 1 20.0757 1 22.4966v33.54c0 2.4214 1.9697 4.3911 4.3906 4.3911h57.2183c2.4214 0 4.3911-1.9697 4.3911-4.3911v-33.54C67 20.0757 65.0303 18.106 62.6089 18.106zM7.5537 15.5664h3.8657v2.5396H7.5537V15.5664zM65 56.0366c0 1.3184-1.0728 2.3911-2.3911 2.3911H5.3906C4.0723 58.4277 3 57.355 3 56.0366V36.8525h16.0385c.5234 9.3699 8.2888 16.8379 17.7872 16.8379s17.2639-7.468 17.7872-16.8379H65V56.0366zM20.9878 35.8525c0-8.7329 7.105-15.8379 15.8379-15.8379s15.8379 7.105 15.8379 15.8379-7.105 15.8379-15.8379 15.8379S20.9878 44.5854 20.9878 35.8525zM65 34.8525H54.6129c-.5234-9.3699-8.2888-16.8379-17.7872-16.8379s-17.2639 7.468-17.7872 16.8379H3v-12.356c0-1.3184 1.0723-2.3906 2.3906-2.3906.1612 0 9.2872-.0002 9.6204 0 4.2748-.0003 4.636-4.9126 7.2205-9.1895.3979-.8164 1.2417-1.3442 2.1499-1.3442h23.7583c.9082 0 1.7515.5278 2.1494 1.3442 2.5528 4.2244 2.9446 9.1895 7.2207 9.1895h5.0991c1.3184 0 2.3911 1.0723 2.3911 2.3906V34.8525z" fill="#000000" class="color000000 svgShape"></path><path d="M36.8257,47.8525c6.6167,0,12-5.3833,12-12s-5.3833-12-12-12s-12,5.3833-12,12S30.209,47.8525,36.8257,47.8525z
			 M36.8257,25.8525c5.5142,0,10,4.4858,10,10s-4.4858,10-10,10s-10-4.4858-10-10S31.3115,25.8525,36.8257,25.8525z" fill="#000000" class="color000000 svgShape"></path><path fill="#dee0e6" d="M42.4731,12.905v1.6954c0,0.6216-0.4973,1.1303-1.1303,1.1303h-9.042
			c-0.6216,0-1.1303-0.5086-1.1303-1.1303V12.905c0-0.6216,0.5086-1.1303,1.1303-1.1303h9.042
			C41.9758,11.7748,42.4731,12.2834,42.4731,12.905z" class="colordee1e6 svgShape"></path><rect width="8.093" height="1.356" x="32.775" y="13.075" fill="#ffffff" class="colorffffff svgShape"></rect></svg>